<svg width="34" height="33" viewBox="0 0 34 33" fill="none" xmlns="http://www.w3.org/2000/svg">
<g clip-path="url(#clip0_155_9)">
<path d="M16.3014 32.0561L16.3476 19.274L11.4133 31.0651L10.2326 30.571L15.1666 18.7798L6.09578 27.7849L5.19399 26.8765L14.2647 17.8713L2.43829 22.7194L1.9528 21.5351L13.7805 16.6861L0.997758 16.6399L1.00245 15.3599L13.7833 15.4061L1.99335 10.4718L2.48751 9.29108L14.2781 14.2252L5.27361 5.15432L6.18203 4.25255L15.1866 13.3233L10.3391 1.49687L11.5235 1.01137L16.3712 12.8384L16.4187 0.0562973L17.6986 0.0609885L17.6518 12.8418L22.5867 1.05192L23.7674 1.54609L18.8327 13.3366L27.9042 4.33217L28.806 5.24057L19.734 14.2458L31.5617 9.39764L32.0472 10.582L20.2207 15.4297L33.0022 15.4772L32.9975 16.7572L20.2143 16.7097L32.0066 21.6452L31.5125 22.826L19.7213 17.8913L28.7264 26.9627L27.818 27.8645L18.8127 18.7932L23.6609 30.6202L22.4765 31.1057L17.6282 19.2793L17.5813 32.0608L16.3014 32.0561Z" fill="#CE523A"/>
</g>
<defs>
<clipPath id="clip0_155_9">
<rect width="32.1171" height="32.1171" fill="white" transform="translate(0.941467)"/>
</clipPath>
</defs>
</svg>
